<?xml version="1.0" standalone="no"?><!DOCTYPE svg PUBLIC "-//W3C//DTD SVG 1.1//EN" "http://www.w3.org/Graphics/SVG/1.1/DTD/svg11.dtd"><svg class="icon" width="32px" height="32.00px" viewBox="0 0 1024 1024" version="1.1" xmlns="http://www.w3.org/2000/svg"><path d="M775.634 662.84h-0.069L249 662.411c-0.163 0-0.325-0.001-0.488-0.004a66.366 66.366 0 0 1-33.364-9.673c-15.124-9.218-25.75-23.771-29.927-40.979-4.176-17.21-1.4-35.015 7.816-50.137 0.099-0.161 0.198-0.321 0.3-0.481l142.837-224.691-43.312-218.178a90.677 90.677 0 0 1-2.386-18.033c-0.745-24.16 7.962-47.164 24.52-64.774 16.556-17.612 38.98-27.722 63.141-28.467 0.308-0.009 0.616-0.013 0.924-0.013H653.68c0.309 0 0.617 0.004 0.926 0.013a90.693 90.693 0 0 1 18.737 2.556c23.478 5.75 43.312 20.3 55.846 40.968 12.453 20.531 16.222 44.659 10.633 67.99l-47.006 218.013 138.275 225.003c0.095 0.153 0.188 0.309 0.28 0.465a67.153 67.153 0 0 1 9.197 30.661c0.891 17.851-5.223 34.976-17.213 48.226-11.992 13.25-28.426 21.037-46.273 21.926-0.482 0.024-0.965 0.038-1.448 0.038z m-526.259-60.428l525.189 0.427c2.095-0.238 3.487-1.322 4.303-2.224 0.876-0.967 1.895-2.616 1.776-4.976a6.938 6.938 0 0 0-0.87-3.023l-144.38-234.941a30 30 0 0 1-3.768-22.03l49.619-230.131a32 32 0 0 1 0.188-0.814c1.938-7.911 0.68-16.103-3.544-23.067-4.225-6.965-10.907-11.868-18.819-13.805a30.669 30.669 0 0 0-5.922-0.847H379.593c-7.991 0.347-15.393 3.738-20.881 9.577-5.58 5.935-8.514 13.687-8.263 21.827 0.065 2.125 0.356 4.25 0.861 6.315 0.105 0.431 0.201 0.862 0.287 1.296l45.771 230.559a30.005 30.005 0 0 1-4.109 21.936l-149.06 234.481c-1.042 1.795-0.941 3.505-0.668 4.635 0.281 1.155 1.001 2.771 2.843 3.892a6.308 6.308 0 0 0 3.001 0.913zM516.367 1017.019c-16.517 0-29.935-13.358-29.997-29.889l-1.282-351.186c-0.06-16.569 13.321-30.05 29.89-30.109h0.113c16.517 0 29.936 13.358 29.996 29.889l1.283 351.186c0.06 16.569-13.321 30.05-29.891 30.109h-0.112z" /></svg>